<mxfile host="app.diagrams.net" agent="Mozilla/5.0 (Macintosh; Intel Mac OS X 10_15_7) AppleWebKit/537.36 (KHTML, like Gecko) Chrome/131.0.0.0 Safari/537.36" version="25.0.3">
  <diagram name="Page-1" id="QYuIQ6ww__clh0-2v3mI">
    <mxGraphModel dx="2044" dy="789" grid="1" gridSize="10" guides="1" tooltips="1" connect="1" arrows="1" fold="1" page="1" pageScale="1" pageWidth="850" pageHeight="1100" math="0" shadow="0">
      <root>
        <mxCell id="0" />
        <mxCell id="1" parent="0" />
        <mxCell id="mvYz8XYoMtapMgSB3aDy-4" style="edgeStyle=orthogonalEdgeStyle;rounded=0;orthogonalLoop=1;jettySize=auto;html=1;" edge="1" parent="1" source="mvYz8XYoMtapMgSB3aDy-1" target="mvYz8XYoMtapMgSB3aDy-3">
          <mxGeometry relative="1" as="geometry" />
        </mxCell>
        <mxCell id="mvYz8XYoMtapMgSB3aDy-1" value="start" style="strokeWidth=2;html=1;shape=mxgraph.flowchart.start_1;whiteSpace=wrap;" vertex="1" parent="1">
          <mxGeometry y="370" width="100" height="60" as="geometry" />
        </mxCell>
        <mxCell id="mvYz8XYoMtapMgSB3aDy-3" value="nhap a, b" style="shape=parallelogram;html=1;strokeWidth=2;perimeter=parallelogramPerimeter;whiteSpace=wrap;rounded=1;arcSize=12;size=0.23;" vertex="1" parent="1">
          <mxGeometry x="140" y="370" width="100" height="60" as="geometry" />
        </mxCell>
        <mxCell id="mvYz8XYoMtapMgSB3aDy-6" value="%d, a - b" style="rounded=1;whiteSpace=wrap;html=1;absoluteArcSize=1;arcSize=14;strokeWidth=2;" vertex="1" parent="1">
          <mxGeometry x="340" y="260" width="100" height="100" as="geometry" />
        </mxCell>
        <mxCell id="mvYz8XYoMtapMgSB3aDy-8" value="%d, a * b" style="rounded=1;whiteSpace=wrap;html=1;absoluteArcSize=1;arcSize=14;strokeWidth=2;" vertex="1" parent="1">
          <mxGeometry x="340" y="440" width="100" height="100" as="geometry" />
        </mxCell>
        <mxCell id="mvYz8XYoMtapMgSB3aDy-10" value="%d, a / b" style="rounded=1;whiteSpace=wrap;html=1;absoluteArcSize=1;arcSize=14;strokeWidth=2;" vertex="1" parent="1">
          <mxGeometry x="340" y="620" width="100" height="100" as="geometry" />
        </mxCell>
        <mxCell id="mvYz8XYoMtapMgSB3aDy-16" style="edgeStyle=orthogonalEdgeStyle;rounded=0;orthogonalLoop=1;jettySize=auto;html=1;" edge="1" parent="1" source="mvYz8XYoMtapMgSB3aDy-11">
          <mxGeometry relative="1" as="geometry">
            <mxPoint x="520" y="130" as="targetPoint" />
          </mxGeometry>
        </mxCell>
        <mxCell id="mvYz8XYoMtapMgSB3aDy-11" value="%d, a + b" style="rounded=1;whiteSpace=wrap;html=1;absoluteArcSize=1;arcSize=14;strokeWidth=2;" vertex="1" parent="1">
          <mxGeometry x="340" y="80" width="100" height="100" as="geometry" />
        </mxCell>
        <mxCell id="mvYz8XYoMtapMgSB3aDy-12" value="" style="endArrow=classic;html=1;rounded=0;exitX=1;exitY=0.5;exitDx=0;exitDy=0;entryX=0;entryY=0.5;entryDx=0;entryDy=0;" edge="1" parent="1" source="mvYz8XYoMtapMgSB3aDy-3" target="mvYz8XYoMtapMgSB3aDy-11">
          <mxGeometry width="50" height="50" relative="1" as="geometry">
            <mxPoint x="400" y="430" as="sourcePoint" />
            <mxPoint x="280" y="120" as="targetPoint" />
            <Array as="points">
              <mxPoint x="280" y="400" />
              <mxPoint x="280" y="130" />
              <mxPoint x="310" y="130" />
            </Array>
          </mxGeometry>
        </mxCell>
        <mxCell id="mvYz8XYoMtapMgSB3aDy-13" value="" style="endArrow=classic;html=1;rounded=0;" edge="1" parent="1">
          <mxGeometry width="50" height="50" relative="1" as="geometry">
            <mxPoint x="280" y="310" as="sourcePoint" />
            <mxPoint x="338" y="310" as="targetPoint" />
            <Array as="points">
              <mxPoint x="310" y="310" />
            </Array>
          </mxGeometry>
        </mxCell>
        <mxCell id="mvYz8XYoMtapMgSB3aDy-14" value="" style="endArrow=classic;html=1;rounded=0;entryX=0;entryY=0.5;entryDx=0;entryDy=0;" edge="1" parent="1" target="mvYz8XYoMtapMgSB3aDy-8">
          <mxGeometry width="50" height="50" relative="1" as="geometry">
            <mxPoint x="280" y="400" as="sourcePoint" />
            <mxPoint x="280" y="490" as="targetPoint" />
            <Array as="points">
              <mxPoint x="280" y="490" />
            </Array>
          </mxGeometry>
        </mxCell>
        <mxCell id="mvYz8XYoMtapMgSB3aDy-15" value="" style="endArrow=classic;html=1;rounded=0;entryX=0;entryY=0.5;entryDx=0;entryDy=0;" edge="1" parent="1" target="mvYz8XYoMtapMgSB3aDy-10">
          <mxGeometry width="50" height="50" relative="1" as="geometry">
            <mxPoint x="280" y="490" as="sourcePoint" />
            <mxPoint x="450" y="380" as="targetPoint" />
            <Array as="points">
              <mxPoint x="280" y="670" />
            </Array>
          </mxGeometry>
        </mxCell>
        <mxCell id="mvYz8XYoMtapMgSB3aDy-17" value="print(&quot;ket qua a + b&quot;)" style="strokeWidth=2;html=1;shape=mxgraph.flowchart.display;whiteSpace=wrap;" vertex="1" parent="1">
          <mxGeometry x="520" y="100" width="120" height="60" as="geometry" />
        </mxCell>
        <mxCell id="mvYz8XYoMtapMgSB3aDy-18" value="print(&quot;ket qua a - b&quot;)" style="strokeWidth=2;html=1;shape=mxgraph.flowchart.display;whiteSpace=wrap;" vertex="1" parent="1">
          <mxGeometry x="520" y="280" width="120" height="60" as="geometry" />
        </mxCell>
        <mxCell id="mvYz8XYoMtapMgSB3aDy-19" style="edgeStyle=orthogonalEdgeStyle;rounded=0;orthogonalLoop=1;jettySize=auto;html=1;entryX=0;entryY=0.5;entryDx=0;entryDy=0;entryPerimeter=0;" edge="1" parent="1" source="mvYz8XYoMtapMgSB3aDy-6" target="mvYz8XYoMtapMgSB3aDy-18">
          <mxGeometry relative="1" as="geometry" />
        </mxCell>
        <mxCell id="mvYz8XYoMtapMgSB3aDy-20" value="print(&quot;ket qua a * b&quot;)" style="strokeWidth=2;html=1;shape=mxgraph.flowchart.display;whiteSpace=wrap;" vertex="1" parent="1">
          <mxGeometry x="520" y="460" width="120" height="60" as="geometry" />
        </mxCell>
        <mxCell id="mvYz8XYoMtapMgSB3aDy-21" style="edgeStyle=orthogonalEdgeStyle;rounded=0;orthogonalLoop=1;jettySize=auto;html=1;entryX=0;entryY=0.5;entryDx=0;entryDy=0;entryPerimeter=0;" edge="1" parent="1" source="mvYz8XYoMtapMgSB3aDy-8" target="mvYz8XYoMtapMgSB3aDy-20">
          <mxGeometry relative="1" as="geometry" />
        </mxCell>
        <mxCell id="mvYz8XYoMtapMgSB3aDy-28" style="edgeStyle=orthogonalEdgeStyle;rounded=0;orthogonalLoop=1;jettySize=auto;html=1;" edge="1" parent="1" source="mvYz8XYoMtapMgSB3aDy-22">
          <mxGeometry relative="1" as="geometry">
            <mxPoint x="800" y="430" as="targetPoint" />
          </mxGeometry>
        </mxCell>
        <mxCell id="mvYz8XYoMtapMgSB3aDy-22" value="print(&quot;ket qua a / b&quot;)" style="strokeWidth=2;html=1;shape=mxgraph.flowchart.display;whiteSpace=wrap;" vertex="1" parent="1">
          <mxGeometry x="520" y="640" width="120" height="60" as="geometry" />
        </mxCell>
        <mxCell id="mvYz8XYoMtapMgSB3aDy-23" style="edgeStyle=orthogonalEdgeStyle;rounded=0;orthogonalLoop=1;jettySize=auto;html=1;entryX=0;entryY=0.5;entryDx=0;entryDy=0;entryPerimeter=0;" edge="1" parent="1" source="mvYz8XYoMtapMgSB3aDy-10" target="mvYz8XYoMtapMgSB3aDy-22">
          <mxGeometry relative="1" as="geometry" />
        </mxCell>
        <mxCell id="mvYz8XYoMtapMgSB3aDy-24" value="start" style="strokeWidth=2;html=1;shape=mxgraph.flowchart.start_1;whiteSpace=wrap;" vertex="1" parent="1">
          <mxGeometry x="750" y="370" width="100" height="60" as="geometry" />
        </mxCell>
        <mxCell id="mvYz8XYoMtapMgSB3aDy-25" style="edgeStyle=orthogonalEdgeStyle;rounded=0;orthogonalLoop=1;jettySize=auto;html=1;entryX=0.5;entryY=0;entryDx=0;entryDy=0;entryPerimeter=0;" edge="1" parent="1" source="mvYz8XYoMtapMgSB3aDy-18" target="mvYz8XYoMtapMgSB3aDy-24">
          <mxGeometry relative="1" as="geometry" />
        </mxCell>
        <mxCell id="mvYz8XYoMtapMgSB3aDy-26" style="edgeStyle=orthogonalEdgeStyle;rounded=0;orthogonalLoop=1;jettySize=auto;html=1;entryX=0.5;entryY=0;entryDx=0;entryDy=0;entryPerimeter=0;" edge="1" parent="1" source="mvYz8XYoMtapMgSB3aDy-17" target="mvYz8XYoMtapMgSB3aDy-24">
          <mxGeometry relative="1" as="geometry" />
        </mxCell>
        <mxCell id="mvYz8XYoMtapMgSB3aDy-27" style="edgeStyle=orthogonalEdgeStyle;rounded=0;orthogonalLoop=1;jettySize=auto;html=1;entryX=0.5;entryY=1;entryDx=0;entryDy=0;entryPerimeter=0;" edge="1" parent="1" source="mvYz8XYoMtapMgSB3aDy-20" target="mvYz8XYoMtapMgSB3aDy-24">
          <mxGeometry relative="1" as="geometry" />
        </mxCell>
      </root>
    </mxGraphModel>
  </diagram>
</mxfile>
